<svg xmlns="http://www.w3.org/2000/svg" version="1.1" xmlns:xlink="http://www.w3.org/1999/xlink" xmlns:svgjs="http://svgjs.dev/svgjs" width="1000" height="1000" viewBox="0 0 1000 1000"><rect width="1000" height="1000" fill="#000000"></rect><g transform="matrix(0.7,0,0,0.7,150,281.25)"><svg viewBox="0 0 512 320" data-background-color="#aaaaaa" preserveAspectRatio="xMidYMid meet" height="625" width="1000" xmlns="http://www.w3.org/2000/svg" xmlns:xlink="http://www.w3.org/1999/xlink"><g id="tight-bounds" transform="matrix(1,0,0,1,0,0)"><svg viewBox="0 0 512 320" height="320" width="512"><g><svg></svg></g><g><svg viewBox="0 0 512 320" height="320" width="512"><g><path xmlns="http://www.w3.org/2000/svg" d="M96 320l0-320 320 0 0 320z" fill="#ffffff" fill-rule="nonzero" stroke="none" stroke-width="1" stroke-linecap="butt" stroke-linejoin="miter" stroke-miterlimit="10" stroke-dasharray="" stroke-dashoffset="0" font-family="none" font-weight="none" font-size="none" text-anchor="none" style="mix-blend-mode: normal" data-fill-palette-color="tertiary"></path></g><g transform="matrix(1,0,0,1,200.85714285714286,80)"><svg viewBox="0 0 110.28571428571429 160" height="160" width="110.28571428571429"><g><svg viewBox="0 0 110.28571428571429 160" height="160" width="110.28571428571429"><g><svg viewBox="0 0 110.28571428571429 160" height="160" width="110.28571428571429"><g><svg viewBox="0 0 110.28571428571429 160" height="160" width="110.28571428571429"><g id="textblocktransform"><svg viewBox="0 0 110.28571428571429 160" height="160" width="110.28571428571429" id="textblock"><g><svg viewBox="0 0 110.28571428571429 160" height="160" width="110.28571428571429"><g transform="matrix(1,0,0,1,0,0)"><svg width="110.28571428571429" viewBox="0 -39 29.950000762939453 43" height="160" data-palette-color="#aaaaaa"><path d="M23.35-25.6L23.35-25.6Q23.35-18.4 18.4-15.95L18.4-15.95 25.95 0 22.3 0 15.2-14.9Q13.4-14.6 11.25-14.6L11.25-14.6 7.4-14.6 7.4 0 4 0 4-35 11.25-35Q17.35-35 20.15-33.1L20.15-33.1Q23.35-30.95 23.35-25.6ZM11-32.25L7.4-32.25 7.4-17.35 11-17.35Q15.45-17.35 17.7-19.15 19.95-20.95 19.95-25.4L19.95-25.4Q19.95-31.1 14.75-32L14.75-32Q13.1-32.25 11-32.25L11-32.25Z" opacity="1" transform="matrix(1,0,0,1,0,0)" fill="#000000" class="wordmark-text-0" data-fill-palette-color="quaternary" id="text-0"></path></svg></g></svg></g></svg></g></svg></g><g></g></svg></g></svg></g></svg></g></svg></g><defs></defs></svg><rect width="512" height="320" fill="none" stroke="none" visibility="hidden"></rect></g></svg></g></svg>